<svg id="visual" viewBox="0 0 1600 900" width="1600" height="900" xmlns="http://www.w3.org/2000/svg" xmlns:xlink="http://www.w3.org/1999/xlink" version="1.1"><rect x="0" y="0" width="1600" height="900" fill="#dee6dc"></rect><path d="M0 793L38.2 768.3C76.3 743.7 152.7 694.3 228.8 693.5C305 692.7 381 740.3 457.2 750.7C533.3 761 609.7 734 685.8 707.8C762 681.7 838 656.3 914.2 658.8C990.3 661.3 1066.7 691.7 1142.8 720.7C1219 749.7 1295 777.3 1371.2 777.5C1447.3 777.7 1523.7 750.3 1561.8 736.7L1600 723L1600 901L1561.8 901C1523.7 901 1447.3 901 1371.2 901C1295 901 1219 901 1142.8 901C1066.7 901 990.3 901 914.2 901C838 901 762 901 685.8 901C609.7 901 533.3 901 457.2 901C381 901 305 901 228.8 901C152.7 901 76.3 901 38.2 901L0 901Z" fill="#0066FF" stroke-linecap="round" stroke-linejoin="miter"></path></svg>