<svg id="visual" viewBox="0 0 1920 1080" width="1920" height="1080" xmlns="http://www.w3.org/2000/svg" xmlns:xlink="http://www.w3.org/1999/xlink" version="1.1"><rect x="0" y="0" width="1920" height="1080" fill="#001220"></rect><path d="M0 761L45.7 756.8C91.3 752.7 182.7 744.3 274.2 724.8C365.7 705.3 457.3 674.7 548.8 670C640.3 665.3 731.7 686.7 823 695.2C914.3 703.7 1005.7 699.3 1097 692.3C1188.3 685.3 1279.7 675.7 1371.2 692.2C1462.7 708.7 1554.3 751.3 1645.8 768.7C1737.3 786 1828.7 778 1874.3 774L1920 770L1920 1081L1874.3 1081C1828.7 1081 1737.3 1081 1645.8 1081C1554.3 1081 1462.7 1081 1371.2 1081C1279.7 1081 1188.3 1081 1097 1081C1005.7 1081 914.3 1081 823 1081C731.7 1081 640.3 1081 548.8 1081C457.3 1081 365.7 1081 274.2 1081C182.7 1081 91.3 1081 45.7 1081L0 1081Z" fill="#fa7268"></path><path d="M0 857L45.7 845.8C91.3 834.7 182.7 812.3 274.2 801.3C365.7 790.3 457.3 790.7 548.8 785C640.3 779.3 731.7 767.7 823 772C914.3 776.3 1005.7 796.7 1097 797.7C1188.3 798.7 1279.7 780.3 1371.2 781.8C1462.7 783.3 1554.3 804.7 1645.8 796.8C1737.3 789 1828.7 752 1874.3 733.5L1920 715L1920 1081L1874.3 1081C1828.7 1081 1737.3 1081 1645.8 1081C1554.3 1081 1462.7 1081 1371.2 1081C1279.7 1081 1188.3 1081 1097 1081C1005.7 1081 914.3 1081 823 1081C731.7 1081 640.3 1081 548.8 1081C457.3 1081 365.7 1081 274.2 1081C182.7 1081 91.3 1081 45.7 1081L0 1081Z" fill="#ef5f67"></path><path d="M0 823L45.7 828.5C91.3 834 182.7 845 274.2 860C365.7 875 457.3 894 548.8 887.5C640.3 881 731.7 849 823 836.7C914.3 824.3 1005.7 831.7 1097 840C1188.3 848.3 1279.7 857.7 1371.2 866.8C1462.7 876 1554.3 885 1645.8 876.8C1737.3 868.7 1828.7 843.3 1874.3 830.7L1920 818L1920 1081L1874.3 1081C1828.7 1081 1737.3 1081 1645.8 1081C1554.3 1081 1462.7 1081 1371.2 1081C1279.7 1081 1188.3 1081 1097 1081C1005.7 1081 914.3 1081 823 1081C731.7 1081 640.3 1081 548.8 1081C457.3 1081 365.7 1081 274.2 1081C182.7 1081 91.3 1081 45.7 1081L0 1081Z" fill="#e34c67"></path><path d="M0 964L45.7 953.7C91.3 943.3 182.7 922.7 274.2 908C365.7 893.3 457.3 884.7 548.8 882.3C640.3 880 731.7 884 823 894.7C914.3 905.3 1005.7 922.7 1097 925.3C1188.3 928 1279.7 916 1371.2 908.5C1462.7 901 1554.3 898 1645.8 893.8C1737.3 889.7 1828.7 884.3 1874.3 881.7L1920 879L1920 1081L1874.3 1081C1828.7 1081 1737.3 1081 1645.8 1081C1554.3 1081 1462.7 1081 1371.2 1081C1279.7 1081 1188.3 1081 1097 1081C1005.7 1081 914.3 1081 823 1081C731.7 1081 640.3 1081 548.8 1081C457.3 1081 365.7 1081 274.2 1081C182.7 1081 91.3 1081 45.7 1081L0 1081Z" fill="#d53867"></path><path d="M0 973L45.7 969.5C91.3 966 182.7 959 274.2 965.3C365.7 971.7 457.3 991.3 548.8 997.2C640.3 1003 731.7 995 823 985.2C914.3 975.3 1005.7 963.7 1097 967C1188.3 970.3 1279.7 988.7 1371.2 992.2C1462.7 995.7 1554.3 984.3 1645.8 976.2C1737.3 968 1828.7 963 1874.3 960.5L1920 958L1920 1081L1874.3 1081C1828.7 1081 1737.3 1081 1645.8 1081C1554.3 1081 1462.7 1081 1371.2 1081C1279.7 1081 1188.3 1081 1097 1081C1005.7 1081 914.3 1081 823 1081C731.7 1081 640.3 1081 548.8 1081C457.3 1081 365.7 1081 274.2 1081C182.7 1081 91.3 1081 45.7 1081L0 1081Z" fill="#c62368"></path></svg>